<?xml version="1.0" encoding="UTF-8" standalone="no"?>
<!DOCTYPE svg PUBLIC "-//W3C//DTD SVG 1.1//EN"
 "http://www.w3.org/Graphics/SVG/1.1/DTD/svg11.dtd">
<!-- Generated by graphviz version 2.47.3 (20210619.1520)
 -->
<!-- Pages: 1 -->
<svg width="233pt" height="296pt"
 viewBox="0.00 0.00 233.19 296.19" xmlns="http://www.w3.org/2000/svg" xmlns:xlink="http://www.w3.org/1999/xlink">
<g id="graph0" class="graph" transform="scale(1 1) rotate(0) translate(4 292.19)">
<polygon fill="white" stroke="transparent" points="-4,4 -4,-292.19 229.19,-292.19 229.19,4 -4,4"/>
<!-- 6586310214657470250 -->
<g id="node1" class="node">
<title>6586310214657470250</title>
<ellipse fill="none" stroke="black" cx="67.59" cy="-67.59" rx="67.69" ry="67.69"/>
<text text-anchor="middle" x="67.59" y="-63.89" font-family="Times,serif" font-size="14.00">random_sample</text>
</g>
<!-- 5765859661775978705 -->
<g id="node2" class="node">
<title>5765859661775978705</title>
<polygon fill="none" stroke="black" points="225.19,-85.59 171.19,-85.59 171.19,-49.59 225.19,-49.59 225.19,-85.59"/>
<text text-anchor="middle" x="198.19" y="-63.89" font-family="Times,serif" font-size="14.00">(0, 0)</text>
</g>
<!-- 6586310214657470250&#45;&gt;5765859661775978705 -->
<g id="edge1" class="edge">
<title>6586310214657470250&#45;&gt;5765859661775978705</title>
<path fill="none" stroke="black" d="M135.53,-67.59C144.27,-67.59 152.94,-67.59 160.91,-67.59"/>
<polygon fill="black" stroke="black" points="160.91,-71.09 170.91,-67.59 160.91,-64.09 160.91,-71.09"/>
</g>
<!-- 2078000400878633715 -->
<g id="node3" class="node">
<title>2078000400878633715</title>
<ellipse fill="none" stroke="black" cx="67.59" cy="-220.59" rx="67.69" ry="67.69"/>
<text text-anchor="middle" x="67.59" y="-216.89" font-family="Times,serif" font-size="14.00">random_sample</text>
</g>
<!-- 3328801815035733012 -->
<g id="node4" class="node">
<title>3328801815035733012</title>
<polygon fill="none" stroke="black" points="225.19,-238.59 171.19,-238.59 171.19,-202.59 225.19,-202.59 225.19,-238.59"/>
<text text-anchor="middle" x="198.19" y="-216.89" font-family="Times,serif" font-size="14.00">(1, 0)</text>
</g>
<!-- 2078000400878633715&#45;&gt;3328801815035733012 -->
<g id="edge2" class="edge">
<title>2078000400878633715&#45;&gt;3328801815035733012</title>
<path fill="none" stroke="black" d="M135.53,-220.59C144.27,-220.59 152.94,-220.59 160.91,-220.59"/>
<polygon fill="black" stroke="black" points="160.91,-224.09 170.91,-220.59 160.91,-217.09 160.91,-224.09"/>
</g>
</g>
</svg>
