<?xml version="1.0" encoding="UTF-8" standalone="no"?>
<!DOCTYPE svg PUBLIC "-//W3C//DTD SVG 1.1//EN"
 "http://www.w3.org/Graphics/SVG/1.1/DTD/svg11.dtd">
<!-- Generated by graphviz version 2.47.3 (20210619.1520)
 -->
<!-- Pages: 1 -->
<svg width="576pt" height="223pt"
 viewBox="0.00 0.00 576.00 222.73" xmlns="http://www.w3.org/2000/svg" xmlns:xlink="http://www.w3.org/1999/xlink">
<g id="graph0" class="graph" transform="scale(0.75 0.75) rotate(0) translate(4 292.19)">
<polygon fill="white" stroke="transparent" points="-4,4 -4,-292.19 761.96,-292.19 761.96,4 -4,4"/>
<!-- &#45;4415528202516487906 -->
<g id="node1" class="node">
<title>&#45;4415528202516487906</title>
<ellipse fill="none" stroke="black" cx="67.59" cy="-220.59" rx="67.69" ry="67.69"/>
<text text-anchor="middle" x="67.59" y="-216.89" font-family="Times,serif" font-size="14.00">random_sample</text>
</g>
<!-- 5399413560189881345 -->
<g id="node2" class="node">
<title>5399413560189881345</title>
<polygon fill="none" stroke="black" points="225.19,-236.59 171.19,-236.59 171.19,-200.59 225.19,-200.59 225.19,-236.59"/>
<text text-anchor="middle" x="198.19" y="-214.89" font-family="Times,serif" font-size="14.00">(0, 0)</text>
</g>
<!-- &#45;4415528202516487906&#45;&gt;5399413560189881345 -->
<g id="edge1" class="edge">
<title>&#45;4415528202516487906&#45;&gt;5399413560189881345</title>
<path fill="none" stroke="black" d="M135.53,-219.55C144.27,-219.42 152.94,-219.28 160.91,-219.16"/>
<polygon fill="black" stroke="black" points="160.97,-222.66 170.91,-219 160.86,-215.66 160.97,-222.66"/>
</g>
<!-- &#45;7638984371175278976 -->
<g id="node5" class="node">
<title>&#45;7638984371175278976</title>
<ellipse fill="none" stroke="black" cx="317.08" cy="-217.59" rx="55.79" ry="55.79"/>
<text text-anchor="middle" x="317.08" y="-213.89" font-family="Times,serif" font-size="14.00">mean_chunk</text>
</g>
<!-- 5399413560189881345&#45;&gt;&#45;7638984371175278976 -->
<g id="edge4" class="edge">
<title>5399413560189881345&#45;&gt;&#45;7638984371175278976</title>
<path fill="none" stroke="black" d="M225.42,-218.37C233.05,-218.3 241.75,-218.23 250.66,-218.15"/>
<polygon fill="black" stroke="black" points="250.8,-221.65 260.77,-218.07 250.74,-214.65 250.8,-221.65"/>
</g>
<!-- 1634056941693961558 -->
<g id="node3" class="node">
<title>1634056941693961558</title>
<ellipse fill="none" stroke="black" cx="67.59" cy="-67.59" rx="67.69" ry="67.69"/>
<text text-anchor="middle" x="67.59" y="-63.89" font-family="Times,serif" font-size="14.00">random_sample</text>
</g>
<!-- 2962355713449635652 -->
<g id="node4" class="node">
<title>2962355713449635652</title>
<polygon fill="none" stroke="black" points="225.19,-96.59 171.19,-96.59 171.19,-60.59 225.19,-60.59 225.19,-96.59"/>
<text text-anchor="middle" x="198.19" y="-74.89" font-family="Times,serif" font-size="14.00">(1, 0)</text>
</g>
<!-- 1634056941693961558&#45;&gt;2962355713449635652 -->
<g id="edge2" class="edge">
<title>1634056941693961558&#45;&gt;2962355713449635652</title>
<path fill="none" stroke="black" d="M135.15,-73.29C144.01,-74.05 152.82,-74.8 160.89,-75.49"/>
<polygon fill="black" stroke="black" points="160.77,-78.99 171.03,-76.36 161.36,-72.02 160.77,-78.99"/>
</g>
<!-- &#45;7514127453375783140 -->
<g id="node7" class="node">
<title>&#45;7514127453375783140</title>
<ellipse fill="none" stroke="black" cx="317.08" cy="-84.59" rx="55.79" ry="55.79"/>
<text text-anchor="middle" x="317.08" y="-80.89" font-family="Times,serif" font-size="14.00">mean_chunk</text>
</g>
<!-- 2962355713449635652&#45;&gt;&#45;7514127453375783140 -->
<g id="edge6" class="edge">
<title>2962355713449635652&#45;&gt;&#45;7514127453375783140</title>
<path fill="none" stroke="black" d="M225.42,-79.94C233.15,-80.34 241.97,-80.79 251,-81.25"/>
<polygon fill="black" stroke="black" points="251.08,-84.76 261.25,-81.78 251.44,-77.77 251.08,-84.76"/>
</g>
<!-- 1775226245870279432 -->
<g id="node6" class="node">
<title>1775226245870279432</title>
<polygon fill="none" stroke="black" points="462.98,-213.59 408.98,-213.59 408.98,-177.59 462.98,-177.59 462.98,-213.59"/>
<text text-anchor="middle" x="435.98" y="-191.89" font-family="Times,serif" font-size="14.00">(0, 0)</text>
</g>
<!-- &#45;7638984371175278976&#45;&gt;1775226245870279432 -->
<g id="edge3" class="edge">
<title>&#45;7638984371175278976&#45;&gt;1775226245870279432</title>
<path fill="none" stroke="black" d="M372.08,-207.43C381.18,-205.72 390.43,-203.98 398.93,-202.38"/>
<polygon fill="black" stroke="black" points="399.69,-205.8 408.87,-200.51 398.4,-198.92 399.69,-205.8"/>
</g>
<!-- &#45;7484349522035468632 -->
<g id="node9" class="node">
<title>&#45;7484349522035468632</title>
<ellipse fill="none" stroke="black" cx="583.47" cy="-149.59" rx="84.49" ry="84.49"/>
<text text-anchor="middle" x="583.47" y="-145.89" font-family="Times,serif" font-size="14.00">mean_agg&#45;aggregate</text>
</g>
<!-- 1775226245870279432&#45;&gt;&#45;7484349522035468632 -->
<g id="edge8" class="edge">
<title>1775226245870279432&#45;&gt;&#45;7484349522035468632</title>
<path fill="none" stroke="black" d="M462.99,-187.37C471.78,-184.59 482.14,-181.31 493.03,-177.87"/>
<polygon fill="black" stroke="black" points="494.24,-181.16 502.72,-174.81 492.13,-174.49 494.24,-181.16"/>
</g>
<!-- 5068743596937856441 -->
<g id="node8" class="node">
<title>5068743596937856441</title>
<polygon fill="none" stroke="black" points="462.98,-140.59 408.98,-140.59 408.98,-104.59 462.98,-104.59 462.98,-140.59"/>
<text text-anchor="middle" x="435.98" y="-118.89" font-family="Times,serif" font-size="14.00">(1, 0)</text>
</g>
<!-- &#45;7514127453375783140&#45;&gt;5068743596937856441 -->
<g id="edge5" class="edge">
<title>&#45;7514127453375783140&#45;&gt;5068743596937856441</title>
<path fill="none" stroke="black" d="M370.38,-101.59C380.2,-104.79 390.25,-108.05 399.42,-111.03"/>
<polygon fill="black" stroke="black" points="398.37,-114.37 408.96,-114.14 400.53,-107.72 398.37,-114.37"/>
</g>
<!-- 5068743596937856441&#45;&gt;&#45;7484349522035468632 -->
<g id="edge9" class="edge">
<title>5068743596937856441&#45;&gt;&#45;7484349522035468632</title>
<path fill="none" stroke="black" d="M462.99,-127.42C471.02,-128.91 480.37,-130.65 490.23,-132.48"/>
<polygon fill="black" stroke="black" points="489.77,-135.95 500.24,-134.33 491.05,-129.07 489.77,-135.95"/>
</g>
<!-- 6433642379405912525 -->
<g id="node10" class="node">
<title>6433642379405912525</title>
<polygon fill="none" stroke="black" points="757.96,-167.59 703.96,-167.59 703.96,-131.59 757.96,-131.59 757.96,-167.59"/>
<text text-anchor="middle" x="730.96" y="-145.89" font-family="Times,serif" font-size="14.00">()</text>
</g>
<!-- &#45;7484349522035468632&#45;&gt;6433642379405912525 -->
<g id="edge7" class="edge">
<title>&#45;7484349522035468632&#45;&gt;6433642379405912525</title>
<path fill="none" stroke="black" d="M668.26,-149.59C677.12,-149.59 685.76,-149.59 693.63,-149.59"/>
<polygon fill="black" stroke="black" points="693.83,-153.09 703.83,-149.59 693.83,-146.09 693.83,-153.09"/>
</g>
</g>
</svg>
